<?xml version="1.0" encoding="UTF-8" standalone="no"?>
<!DOCTYPE svg PUBLIC "-//W3C//DTD SVG 1.1//EN" "http://www.w3.org/Graphics/SVG/1.1/DTD/svg11.dtd">
<svg xmlns="http://www.w3.org/2000/svg" version="1.1" viewBox="0.00 0.00 512.00 512.00">
<g stroke-width="2.00" fill="none" stroke-linecap="butt">
<path stroke="#fccb38" vector-effect="non-scaling-stroke" d="
  M 256.02 0.00
  L 256.02 89.92"
/>
<path stroke="#948858" vector-effect="non-scaling-stroke" d="
  M 256.02 89.92
  Q 255.60 90.13 255.51 90.01"
/>
<path stroke="#a39768" vector-effect="non-scaling-stroke" d="
  M 255.51 90.01
  C 231.30 90.57 211.53 109.56 211.07 134.06
  Q 210.92 141.76 211.03 149.31
  A 0.69 0.69 0.0 0 0 211.72 150.00
  L 240.53 150.00
  A 0.42 0.42 0.0 0 0 240.95 149.59
  Q 241.10 143.86 240.92 138.11
  C 240.62 128.22 245.14 121.09 255.74 119.91"
/>
<path stroke="#948858" vector-effect="non-scaling-stroke" d="
  M 255.74 119.91
  Q 256.03 120.05 256.15 120.00"
/>
<path stroke="#fccb38" vector-effect="non-scaling-stroke" d="
  M 256.15 120.00
  Q 255.76 136.52 256.17 152.81
  Q 256.19 153.73 256.78 154.01"
/>
<path stroke="#948858" vector-effect="non-scaling-stroke" d="
  M 256.78 154.01
  Q 255.66 155.48 255.73 155.68"
/>
<path stroke="#a39768" vector-effect="non-scaling-stroke" d="
  M 255.73 155.68
  Q 241.48 172.17 241.09 193.01
  Q 240.93 201.36 241.04 209.57
  A 0.41 0.41 0.0 0 0 241.45 209.98
  L 255.69 209.98"
/>
<path stroke="#948858" vector-effect="non-scaling-stroke" d="
  M 255.69 209.98
  L 256.28 210.02"
/>
<path stroke="#fccb38" vector-effect="non-scaling-stroke" d="
  M 256.28 210.02
  L 256.23 239.99"
/>
<path stroke="#948858" vector-effect="non-scaling-stroke" d="
  M 256.23 239.99
  L 255.73 240.04"
/>
<path stroke="#a39768" vector-effect="non-scaling-stroke" d="
  M 255.73 240.04
  L 241.61 240.08
  Q 241.00 240.08 241.00 240.69
  L 241.00 269.55
  A 0.42 0.41 0.0 0 0 241.42 269.96
  L 255.70 269.97"
/>
<path stroke="#948858" vector-effect="non-scaling-stroke" d="
  M 255.70 269.97
  L 256.28 270.04"
/>
<path stroke="#fccb38" vector-effect="non-scaling-stroke" d="
  M 256.28 270.04
  L 255.97 389.99"
/>
<path stroke="#f6e7a1" vector-effect="non-scaling-stroke" d="
  M 255.97 389.99
  L 181.01 389.97"
/>
<path stroke="#e8d395" vector-effect="non-scaling-stroke" d="
  M 331.00 389.97
  L 256.03 389.98"
/>
<path stroke="#f4da96" vector-effect="non-scaling-stroke" d="
  M 256.03 389.98
  Q 256.00 389.99 255.97 389.99"
/>
<path stroke="#927b4d" vector-effect="non-scaling-stroke" d="
  M 256.28 270.04
  L 270.26 270.00
  A 0.73 0.73 0.0 0 0 270.99 269.27
  L 270.98 240.56
  Q 270.98 240.01 270.42 240.00
  L 256.23 239.99"
/>
<path stroke="#927b4d" vector-effect="non-scaling-stroke" d="
  M 256.28 210.02
  L 270.39 209.99
  A 0.62 0.62 0.0 0 0 271.01 209.36
  Q 270.82 201.10 271.13 193.78
  C 271.54 184.40 275.71 176.66 283.04 171.11
  C 295.91 161.38 302.87 145.39 300.72 129.41
  C 297.69 106.89 279.08 89.96 256.02 89.92"
/>
<path stroke="#38477d" vector-effect="non-scaling-stroke" d="
  M 255.51 90.01
  C 255.71 90.75 256.00 91.27 256.00 92.03
  Q 255.99 105.26 255.78 118.50
  Q 255.77 119.22 255.74 119.91"
/>
<path stroke="#38477d" vector-effect="non-scaling-stroke" d="
  M 255.69 209.98
  L 255.73 155.68"
/>
<path stroke="#927b4d" vector-effect="non-scaling-stroke" d="
  M 256.78 154.01
  Q 259.77 151.07 263.00 148.37
  Q 267.58 144.56 268.78 142.57
  C 270.84 139.15 271.49 134.97 270.23 130.94
  Q 267.22 121.27 256.15 120.00"
/>
<path stroke="#38477d" vector-effect="non-scaling-stroke" d="
  M 255.73 240.04
  L 255.70 269.97"
/>
<path stroke="#e1efff" vector-effect="non-scaling-stroke" d="
  M 256.03 389.98
  L 256.05 512.00"
/>
</g>
<path fill="#fed843" d="
  M 250.89 0.00
  L 256.02 0.00
  L 256.02 89.92
  Q 255.60 90.13 255.51 90.01
  C 231.30 90.57 211.53 109.56 211.07 134.06
  Q 210.92 141.76 211.03 149.31
  A 0.69 0.69 0.0 0 0 211.72 150.00
  L 240.53 150.00
  A 0.42 0.42 0.0 0 0 240.95 149.59
  Q 241.10 143.86 240.92 138.11
  C 240.62 128.22 245.14 121.09 255.74 119.91
  Q 256.03 120.05 256.15 120.00
  Q 255.76 136.52 256.17 152.81
  Q 256.19 153.73 256.78 154.01
  Q 255.66 155.48 255.73 155.68
  Q 241.48 172.17 241.09 193.01
  Q 240.93 201.36 241.04 209.57
  A 0.41 0.41 0.0 0 0 241.45 209.98
  L 255.69 209.98
  L 256.28 210.02
  L 256.23 239.99
  L 255.73 240.04
  L 241.61 240.08
  Q 241.00 240.08 241.00 240.69
  L 241.00 269.55
  A 0.42 0.41 0.0 0 0 241.42 269.96
  L 255.70 269.97
  L 256.28 270.04
  L 255.97 389.99
  L 181.01 389.97
  C 180.98 381.31 181.24 372.49 180.46 364.15
  Q 176.73 324.28 150.29 292.88
  C 145.12 286.73 138.86 281.36 133.48 275.25
  Q 90.80 226.74 91.09 162.39
  Q 91.27 123.22 109.95 87.65
  Q 129.94 49.61 166.86 25.85
  Q 204.22 1.82 250.89 0.00
  Z"
/>
<path fill="#fabe2c" d="
  M 256.02 0.00
  L 266.50 0.00
  Q 278.45 1.24 283.75 2.14
  Q 304.83 5.72 323.92 14.28
  C 352.76 27.23 378.67 48.87 395.51 75.93
  Q 425.19 123.65 420.45 178.39
  Q 415.67 233.56 379.03 274.76
  C 372.64 281.94 364.79 289.05 358.76 296.74
  Q 332.71 329.92 331.08 372.50
  Q 330.91 377.17 331.00 389.97
  L 256.03 389.98
  Q 256.00 389.99 255.97 389.99
  L 256.28 270.04
  L 270.26 270.00
  A 0.73 0.73 0.0 0 0 270.99 269.27
  L 270.98 240.56
  Q 270.98 240.01 270.42 240.00
  L 256.23 239.99
  L 256.28 210.02
  L 270.39 209.99
  A 0.62 0.62 0.0 0 0 271.01 209.36
  Q 270.82 201.10 271.13 193.78
  C 271.54 184.40 275.71 176.66 283.04 171.11
  C 295.91 161.38 302.87 145.39 300.72 129.41
  C 297.69 106.89 279.08 89.96 256.02 89.92
  L 256.02 0.00
  Z"
/>
<rect fill="#fed843" x="-14.96" y="-31.20" transform="translate(48.49,77.49) rotate(-45.0)" width="29.92" height="62.40" rx="0.27"/>
<rect fill="#fabe2c" x="-14.96" y="-31.20" transform="translate(463.48,77.51) rotate(45.0)" width="29.92" height="62.40" rx="0.30"/>
<path fill="#47568c" d="
  M 255.51 90.01
  C 255.71 90.75 256.00 91.27 256.00 92.03
  Q 255.99 105.26 255.78 118.50
  Q 255.77 119.22 255.74 119.91
  C 245.14 121.09 240.62 128.22 240.92 138.11
  Q 241.10 143.86 240.95 149.59
  A 0.42 0.42 0.0 0 1 240.53 150.00
  L 211.72 150.00
  A 0.69 0.69 0.0 0 1 211.03 149.31
  Q 210.92 141.76 211.07 134.06
  C 211.53 109.56 231.30 90.57 255.51 90.01
  Z"
/>
<path fill="#29376d" d="
  M 255.51 90.01
  Q 255.60 90.13 256.02 89.92
  C 279.08 89.96 297.69 106.89 300.72 129.41
  C 302.87 145.39 295.91 161.38 283.04 171.11
  C 275.71 176.66 271.54 184.40 271.13 193.78
  Q 270.82 201.10 271.01 209.36
  A 0.62 0.62 0.0 0 1 270.39 209.99
  L 256.28 210.02
  L 255.69 209.98
  L 255.73 155.68
  Q 255.66 155.48 256.78 154.01
  Q 259.77 151.07 263.00 148.37
  Q 267.58 144.56 268.78 142.57
  C 270.84 139.15 271.49 134.97 270.23 130.94
  Q 267.22 121.27 256.15 120.00
  Q 256.03 120.05 255.74 119.91
  Q 255.77 119.22 255.78 118.50
  Q 255.99 105.26 256.00 92.03
  C 256.00 91.27 255.71 90.75 255.51 90.01
  Z"
/>
<path fill="#fabe2c" d="
  M 256.15 120.00
  Q 267.22 121.27 270.23 130.94
  C 271.49 134.97 270.84 139.15 268.78 142.57
  Q 267.58 144.56 263.00 148.37
  Q 259.77 151.07 256.78 154.01
  Q 256.19 153.73 256.17 152.81
  Q 255.76 136.52 256.15 120.00
  Z"
/>
<path fill="#fed843" d="
  M 0.00 179.92
  L 0.00 150.05
  L 60.24 150.01
  A 0.75 0.75 0.0 0 1 61.00 150.76
  L 61.00 179.48
  A 0.51 0.51 0.0 0 1 60.49 179.99
  L 0.00 179.92
  Z"
/>
<path fill="#fabe2c" d="
  M 512.00 150.05
  L 512.00 179.95
  L 451.49 179.99
  Q 451.00 179.99 451.00 179.50
  L 451.01 150.66
  Q 451.01 150.01 451.67 150.01
  L 512.00 150.05
  Z"
/>
<path fill="#47568c" d="
  M 255.73 155.68
  L 255.69 209.98
  L 241.45 209.98
  A 0.41 0.41 0.0 0 1 241.04 209.57
  Q 240.93 201.36 241.09 193.01
  Q 241.48 172.17 255.73 155.68
  Z"
/>
<rect fill="#fed843" x="-14.96" y="-31.15" transform="translate(48.80,252.18) rotate(45.0)" width="29.92" height="62.30" rx="0.26"/>
<path fill="#fabe2c" d="
  M 451.87 219.77
  L 495.55 263.44
  A 0.30 0.30 0.0 0 1 495.55 263.86
  L 474.78 284.62
  A 0.30 0.30 0.0 0 1 474.36 284.62
  L 430.70 240.96
  A 0.30 0.30 0.0 0 1 430.70 240.54
  L 451.45 219.77
  A 0.30 0.30 0.0 0 1 451.87 219.77
  Z"
/>
<path fill="#47568c" d="
  M 255.73 240.04
  L 255.70 269.97
  L 241.42 269.96
  A 0.42 0.41 -0.0 0 1 241.00 269.55
  L 241.00 240.69
  Q 241.00 240.08 241.61 240.08
  L 255.73 240.04
  Z"
/>
<path fill="#29376d" d="
  M 255.73 240.04
  L 256.23 239.99
  L 270.42 240.00
  Q 270.98 240.01 270.98 240.56
  L 270.99 269.27
  A 0.73 0.73 0.0 0 1 270.26 270.00
  L 256.28 270.04
  L 255.70 269.97
  L 255.73 240.04
  Z"
/>
<path fill="#edf5ff" d="
  M 181.01 389.97
  L 255.97 389.99
  Q 256.00 389.99 256.03 389.98
  L 256.05 512.00
  L 251.77 512.00
  Q 222.21 509.68 202.37 489.39
  Q 185.13 471.76 181.78 447.47
  Q 180.99 441.78 181.00 427.49
  Q 181.00 408.59 181.01 389.97
  Z"
/>
<path fill="#d5e8fe" d="
  M 331.00 389.97
  Q 330.99 412.86 331.01 436.25
  Q 331.03 449.46 327.51 460.12
  C 319.23 485.15 299.42 503.37 274.08 509.92
  C 270.50 510.84 266.79 511.27 263.12 512.00
  L 256.05 512.00
  L 256.03 389.98
  L 331.00 389.97
  Z"
/>
</svg>
